<svg xmlns="http://www.w3.org/2000/svg" width="64" height="64" viewBox="0 0 64 64" fill="none"><path d="M56.0805 12.8497L30.8521 1.24492C29.0758 0.42359 27.142 -0.00121642 25.185 2.61621e-06C22.5882 7.09905e-06 20.0458 0.744405 17.8591 2.145C15.6723 3.54559 13.9329 5.54367 12.8469 7.9025L1.2421 33.1337C-0.262147 36.4059 -0.405891 40.1414 0.842444 43.5195C2.09078 46.8976 4.62908 49.642 7.89968 51.1497L33.1281 62.7572C34.7476 63.5025 36.4981 63.9213 38.2795 63.99C40.061 64.0586 41.8385 63.7755 43.5105 63.157C45.1825 62.5385 46.7163 61.5967 48.0243 60.3853C49.3322 59.1739 50.3887 57.7167 51.1334 56.0969L62.7381 30.8522C64.2374 27.5814 64.3785 23.8495 63.1305 20.4748C61.8825 17.1001 59.3472 14.358 56.0805 12.8497ZM60.2997 29.7318L48.6923 54.9602C48.0957 56.26 47.2487 57.4293 46.1998 58.4014C45.1509 59.3735 43.9206 60.1292 42.5794 60.6254C41.2381 61.1216 39.8122 61.3485 38.3832 61.2931C36.9541 61.2377 35.5501 60.9011 34.2513 60.3026L9.02281 48.6951C6.39986 47.488 4.36365 45.2886 3.36184 42.5806C2.36004 39.8726 2.47466 36.8776 3.6805 34.2541L15.288 9.02563C15.8851 7.72639 16.7324 6.55756 17.7814 5.58595C18.8305 4.61435 20.0608 3.85901 21.4019 3.36312C22.743 2.86723 24.1688 2.64051 25.5976 2.69592C27.0264 2.75132 28.4303 3.08777 29.729 3.68603L54.9574 15.2908C56.2564 15.8882 57.425 16.7356 58.3965 17.7847C59.368 18.8337 60.1234 20.0639 60.6194 21.4049C61.1155 22.7458 61.3426 24.1714 61.2878 25.6001C61.2329 27.0289 60.8972 28.4328 60.2997 29.7318ZM24.4354 39.4448V34.2324H27.2094C28.5214 34.2296 29.7786 33.7056 30.7044 32.7758C31.6301 31.846 32.1486 30.5865 32.1457 29.2744C32.1429 27.9623 31.6189 26.7052 30.6891 25.7794C29.7593 24.8537 28.4998 24.3352 27.1877 24.3381H21.9726C21.9173 24.3381 21.8625 24.349 21.8115 24.3703C21.7604 24.3915 21.714 24.4226 21.675 24.4619C21.636 24.5011 21.6052 24.5477 21.5843 24.5989C21.5634 24.6501 21.5528 24.7049 21.5531 24.7603V39.4448C21.5528 39.5001 21.5634 39.555 21.5843 39.6062C21.6052 39.6574 21.636 39.704 21.675 39.7432C21.714 39.7824 21.7604 39.8136 21.8115 39.8348C21.8625 39.8561 21.9173 39.867 21.9726 39.867H24.0159C24.1263 39.863 24.2311 39.8171 24.309 39.7387C24.3868 39.6603 24.432 39.5553 24.4354 39.4448ZM24.4354 27.0661H27.0984C27.3852 27.058 27.6706 27.1079 27.9377 27.2126C28.2047 27.3174 28.4479 27.4749 28.6528 27.6757C28.8576 27.8765 29.0199 28.1165 29.13 28.3814C29.24 28.6464 29.2955 28.9307 29.2933 29.2176C29.306 29.5146 29.2588 29.8111 29.1544 30.0895C29.0501 30.3678 28.8907 30.6223 28.6859 30.8378C28.481 31.0532 28.2349 31.2252 27.9622 31.3434C27.6894 31.4617 27.3957 31.5238 27.0984 31.5261H24.4354V27.0661ZM35.0388 39.867H37.0767C37.1874 39.863 37.2924 39.8172 37.3707 39.7389C37.4491 39.6606 37.4948 39.5555 37.4989 39.4448V34.2324H40.2728C40.9225 34.2308 41.5655 34.1013 42.1651 33.8512C42.7647 33.6011 43.3092 33.2353 43.7675 32.7748C44.2257 32.3143 44.5888 31.768 44.8359 31.1672C45.0831 30.5664 45.2094 29.9227 45.2078 29.2731C45.2062 28.6234 45.0767 27.9804 44.8266 27.3808C44.5765 26.7812 44.2108 26.2367 43.7502 25.7785C43.2897 25.3202 42.7435 24.9571 42.1426 24.71C41.5418 24.4628 40.8982 24.3365 40.2485 24.3381H35.0388C34.9268 24.3381 34.8194 24.3826 34.7403 24.4617C34.6611 24.5409 34.6166 24.6483 34.6166 24.7603V39.4448C34.6166 39.5568 34.6611 39.6642 34.7403 39.7434C34.8194 39.8225 34.9268 39.867 35.0388 39.867ZM37.5016 27.0661H40.1646C40.4514 27.058 40.7368 27.1079 41.0038 27.2126C41.2709 27.3174 41.5141 27.4749 41.719 27.6757C41.9238 27.8765 42.0861 28.1165 42.1962 28.3814C42.3062 28.6464 42.3617 28.9307 42.3594 29.2176C42.3722 29.5146 42.3249 29.8111 42.2206 30.0895C42.1162 30.3678 41.9569 30.6223 41.7521 30.8378C41.5472 31.0532 41.3011 31.2252 41.0284 31.3434C40.7556 31.4617 40.4619 31.5238 40.1646 31.5261H37.5016V27.0661ZM56.8952 24.1161H58.6949C58.765 24.1107 58.8354 24.1243 58.8985 24.1554C58.9616 24.1865 59.0152 24.234 59.0537 24.2929C59.0922 24.3519 59.1141 24.4201 59.1171 24.4904C59.1202 24.5607 59.1043 24.6305 59.071 24.6926L52.3485 39.4232C52.2949 39.5601 52.2004 39.6773 52.0779 39.7588C52.0421 39.7938 51.9998 39.8214 51.9534 39.84C51.9069 39.8585 51.8573 39.8677 51.8072 39.867H49.7856C49.7151 39.8727 49.6443 39.8593 49.5808 39.8281C49.5172 39.7968 49.4633 39.749 49.4248 39.6896C49.3862 39.6303 49.3644 39.5616 49.3617 39.4909C49.359 39.4201 49.3755 39.35 49.4094 39.2879L50.9953 35.8589C50.5055 34.7629 45.8804 24.6926 45.8804 24.6926C45.8472 24.6305 45.8312 24.5607 45.8343 24.4904C45.8373 24.4201 45.8592 24.3519 45.8977 24.2929C45.9362 24.234 45.9898 24.1865 46.0529 24.1554C46.116 24.1243 46.1864 24.1107 46.2566 24.1161H48.2755C48.3765 24.115 48.4738 24.1539 48.5461 24.2244C48.6685 24.306 48.7629 24.4231 48.8167 24.56L52.4838 32.6113L56.1184 24.56C56.1713 24.4226 56.266 24.3052 56.3891 24.2244C56.4248 24.1894 56.4671 24.1618 56.5136 24.1432C56.56 24.1246 56.6097 24.1154 56.6597 24.1161H56.8816H56.8952ZM19.5992 39.2879C19.6336 39.3506 19.6502 39.4216 19.6472 39.4931C19.6442 39.5647 19.6217 39.634 19.5821 39.6936C19.5426 39.7533 19.4874 39.801 19.4227 39.8315C19.3579 39.8621 19.2861 39.8744 19.2149 39.867H17.2934C17.1521 39.8744 17.0123 39.8349 16.8958 39.7546C16.7793 39.6744 16.6926 39.5578 16.6493 39.4232L12.6276 30.4923C12.5957 30.4206 12.5437 30.3598 12.4779 30.3171C12.4121 30.2744 12.3353 30.2516 12.2569 30.2516C12.1784 30.2516 12.1017 30.2744 12.0359 30.3171C11.9701 30.3598 11.9181 30.4206 11.8861 30.4923L7.84826 39.4232C7.80111 39.5554 7.71352 39.6695 7.5979 39.7491C7.48229 39.8288 7.34452 39.8701 7.20415 39.867H5.26912C5.19857 39.8727 5.12779 39.8593 5.06426 39.8281C5.00074 39.7968 4.94685 39.749 4.90829 39.6896C4.86974 39.6303 4.84795 39.5616 4.84525 39.4909C4.84255 39.4201 4.85903 39.35 4.89294 39.2879L11.7914 24.357C11.8227 24.2835 11.8752 24.2211 11.9422 24.1777C12.0093 24.1343 12.0877 24.1119 12.1676 24.1134H12.3895C12.4703 24.1086 12.5506 24.1296 12.6187 24.1734C12.6868 24.2171 12.7392 24.2815 12.7684 24.357L19.5992 39.2879ZM25.8914 45.3392L24.2676 48.8223C24.2606 48.8396 24.2487 48.8546 24.2333 48.8652C24.2179 48.8758 24.1997 48.8816 24.181 48.8818H24.1296C24.1106 48.8814 24.0921 48.8756 24.0763 48.865C24.0604 48.8545 24.048 48.8397 24.0403 48.8223L22.4165 45.3392C22.4086 45.3246 22.4048 45.3081 22.4055 45.2915C22.4063 45.2748 22.4115 45.2587 22.4206 45.2449C22.4298 45.231 22.4426 45.2198 22.4575 45.2126C22.4725 45.2054 22.4892 45.2024 22.5058 45.2039H23.1932C23.2119 45.2041 23.2302 45.2095 23.246 45.2196C23.2617 45.2296 23.2744 45.2439 23.2825 45.2607L24.135 47.1552H24.1675L25.0227 45.2607C25.0303 45.2441 25.0425 45.2299 25.0578 45.2199C25.0731 45.2098 25.0909 45.2043 25.1093 45.2039H25.7994C25.8164 45.2007 25.8341 45.2026 25.8501 45.2092C25.8661 45.2159 25.8799 45.2271 25.8896 45.2415C25.8994 45.2558 25.9048 45.2727 25.9051 45.2901C25.9054 45.3075 25.9006 45.3245 25.8914 45.3392ZM28.6356 45.3013V45.867C28.6349 45.893 28.624 45.9178 28.6053 45.936C28.5866 45.9542 28.5616 45.9644 28.5355 45.9644H27.1011V46.6058H28.2838C28.3097 46.6071 28.3341 46.6182 28.3521 46.6368C28.3702 46.6553 28.3806 46.68 28.3812 46.7059V47.2688C28.3812 47.2949 28.371 47.32 28.3529 47.3387C28.3347 47.3574 28.3099 47.3683 28.2838 47.369H27.1011V48.0672H28.5355C28.5616 48.0672 28.5866 48.0774 28.6053 48.0956C28.624 48.1138 28.6349 48.1386 28.6356 48.1646V48.7303C28.6349 48.7563 28.624 48.7811 28.6053 48.7993C28.5866 48.8175 28.5616 48.8277 28.5355 48.8277H26.3921C26.3793 48.8277 26.3666 48.8252 26.3548 48.8203C26.343 48.8154 26.3322 48.8082 26.3232 48.7992C26.3141 48.7901 26.3069 48.7794 26.302 48.7675C26.2972 48.7557 26.2946 48.7431 26.2946 48.7303V45.3013C26.2946 45.2755 26.3049 45.2507 26.3232 45.2324C26.3414 45.2142 26.3662 45.2039 26.3921 45.2039H28.5355C28.5616 45.2039 28.5866 45.2141 28.6053 45.2323C28.624 45.2505 28.6349 45.2753 28.6356 45.3013ZM32.3974 45.3013V48.7871C32.3978 48.7999 32.3955 48.8126 32.3908 48.8245C32.386 48.8363 32.3788 48.847 32.3696 48.8559C32.3604 48.8649 32.3495 48.8718 32.3375 48.8762C32.3255 48.8807 32.3128 48.8826 32.3 48.8818H32.2486C32.2238 48.8825 32.1992 48.8774 32.1767 48.8671C32.1542 48.8568 32.1343 48.8415 32.1187 48.8223L30.1052 46.7979V48.7303C30.1044 48.7563 30.0936 48.7811 30.0749 48.7993C30.0562 48.8175 30.0311 48.8277 30.005 48.8277H29.3907C29.3646 48.8277 29.3395 48.8175 29.3208 48.7993C29.3021 48.7811 29.2913 48.7563 29.2905 48.7303V45.2445C29.2919 45.2191 29.3032 45.1953 29.3219 45.1781C29.3406 45.1609 29.3653 45.1517 29.3907 45.1525H29.4665C29.4922 45.1554 29.517 45.1637 29.5394 45.1767C29.5617 45.1898 29.5811 45.2073 29.5964 45.2283L31.5855 47.1416V45.3013C31.5855 45.2885 31.588 45.2759 31.5929 45.2641C31.5978 45.2522 31.605 45.2415 31.6141 45.2324C31.6231 45.2234 31.6338 45.2162 31.6457 45.2113C31.6575 45.2064 31.6701 45.2039 31.6829 45.2039H32.3054C32.3301 45.2059 32.3531 45.217 32.3701 45.235C32.3871 45.253 32.3968 45.2766 32.3974 45.3013ZM35.4366 45.3013V45.867C35.4359 45.893 35.4251 45.9178 35.4064 45.936C35.3877 45.9542 35.3626 45.9644 35.3365 45.9644H34.5977V48.7303C34.5963 48.7561 34.5852 48.7805 34.5667 48.7986C34.5481 48.8167 34.5234 48.827 34.4975 48.8277H33.8778C33.8519 48.827 33.8272 48.8167 33.8086 48.7986C33.7901 48.7805 33.779 48.7561 33.7776 48.7303V45.9644H33.0388C33.0127 45.9644 32.9877 45.9542 32.969 45.936C32.9502 45.9178 32.9394 45.893 32.9387 45.867V45.3013C32.9394 45.2753 32.9502 45.2505 32.969 45.2323C32.9877 45.2141 33.0127 45.2039 33.0388 45.2039H35.3365C35.3626 45.2039 35.3877 45.2141 35.4064 45.2323C35.4251 45.2505 35.4359 45.2753 35.4366 45.3013ZM38.8926 45.3013V47.5043C38.8698 47.88 38.7045 48.2329 38.4304 48.4909C38.1563 48.7489 37.7941 48.8926 37.4177 48.8926C37.0412 48.8926 36.679 48.7489 36.4049 48.4909C36.1308 48.2329 35.9655 47.88 35.9427 47.5043V45.3013C35.9434 45.2757 35.9539 45.2513 35.972 45.2332C35.9901 45.2151 36.0145 45.2046 36.0401 45.2039H36.6761C36.7022 45.2039 36.7273 45.2141 36.746 45.2323C36.7647 45.2505 36.7756 45.2753 36.7763 45.3013V47.4664C36.7734 47.5486 36.7883 47.6305 36.82 47.7065C36.8516 47.7825 36.8991 47.8507 36.9595 47.9067C37.0198 47.9627 37.0915 48.005 37.1696 48.0308C37.2477 48.0566 37.3305 48.0654 37.4123 48.0564C37.4947 48.0661 37.5783 48.058 37.6573 48.0326C37.7364 48.0072 37.809 47.9651 37.8704 47.9091C37.9317 47.8532 37.9803 47.7847 38.0129 47.7083C38.0454 47.6319 38.0612 47.5494 38.0591 47.4664V45.3013C38.0579 45.2876 38.0597 45.2739 38.0642 45.2609C38.0688 45.2479 38.076 45.2361 38.0855 45.2261C38.0949 45.2161 38.1064 45.2083 38.1191 45.2031C38.1318 45.1978 38.1455 45.1954 38.1592 45.1958H38.7952C38.8086 45.1961 38.8218 45.1992 38.834 45.2047C38.8462 45.2102 38.8571 45.2181 38.8662 45.228C38.8753 45.2378 38.8823 45.2494 38.8868 45.262C38.8914 45.2746 38.8933 45.288 38.8926 45.3013ZM42.4487 46.3216C42.4506 46.1734 42.4226 46.0263 42.3664 45.8892C42.3102 45.752 42.227 45.6276 42.1216 45.5233C42.0163 45.419 41.8911 45.337 41.7534 45.2821C41.6157 45.2272 41.4684 45.2006 41.3202 45.2039H39.783C39.7569 45.2039 39.7318 45.2141 39.7131 45.2323C39.6944 45.2505 39.6836 45.2753 39.6829 45.3013V48.7303C39.6836 48.7563 39.6944 48.7811 39.7131 48.7993C39.7318 48.8175 39.7569 48.8277 39.783 48.8277H40.4C40.4257 48.827 40.4501 48.8165 40.4682 48.7984C40.4863 48.7803 40.4968 48.7559 40.4975 48.7303V47.4096H40.8547L41.5421 48.7817C41.551 48.7959 41.5633 48.8076 41.578 48.8157C41.5927 48.8238 41.6093 48.8279 41.626 48.8277H42.3161C42.3338 48.8284 42.3514 48.8243 42.3669 48.8158C42.3824 48.8072 42.3953 48.7946 42.4042 48.7793C42.4131 48.764 42.4177 48.7466 42.4174 48.7289C42.4172 48.7112 42.4121 48.6939 42.4027 48.6788L41.6774 47.3609C41.9008 47.2938 42.0965 47.1564 42.2355 46.9692C42.3745 46.7819 42.4493 46.5548 42.4487 46.3216ZM41.2525 46.7519H40.4867V45.94H41.2525C41.3046 45.9381 41.3565 45.947 41.4049 45.966C41.4534 45.9851 41.4974 46.0139 41.5342 46.0508C41.5711 46.0876 41.5999 46.1316 41.6189 46.1801C41.638 46.2285 41.6469 46.2804 41.645 46.3325C41.6483 46.3861 41.6406 46.4399 41.6224 46.4905C41.6042 46.5411 41.5759 46.5875 41.5391 46.6267C41.5024 46.666 41.458 46.6974 41.4088 46.7189C41.3595 46.7404 41.3063 46.7517 41.2525 46.7519ZM45.4392 45.3013V45.867C45.4392 45.8928 45.429 45.9176 45.4107 45.9359C45.3924 45.9541 45.3677 45.9644 45.3418 45.9644H43.9075V46.6058H45.0874C45.1136 46.6071 45.1383 46.6181 45.1568 46.6366C45.1753 46.6551 45.1862 46.6798 45.1876 46.7059V47.2688C45.1869 47.2952 45.1761 47.3203 45.1575 47.3389C45.1388 47.3575 45.1138 47.3683 45.0874 47.369H43.9075V48.0672H45.3418C45.3546 48.0672 45.3673 48.0697 45.3791 48.0746C45.3909 48.0795 45.4017 48.0867 45.4107 48.0957C45.4198 48.1048 45.4269 48.1155 45.4318 48.1274C45.4367 48.1392 45.4392 48.1518 45.4392 48.1646V48.7303C45.4392 48.7431 45.4367 48.7557 45.4318 48.7675C45.4269 48.7794 45.4198 48.7901 45.4107 48.7992C45.4017 48.8082 45.3909 48.8154 45.3791 48.8203C45.3673 48.8252 45.3546 48.8277 45.3418 48.8277H43.1984C43.1723 48.8277 43.1472 48.8175 43.1285 48.7993C43.1098 48.7811 43.099 48.7563 43.0983 48.7303V45.3013C43.099 45.2753 43.1098 45.2505 43.1285 45.2323C43.1472 45.2141 43.1723 45.2039 43.1984 45.2039H45.3418C45.3677 45.2039 45.3924 45.2142 45.4107 45.2324C45.429 45.2507 45.4392 45.2755 45.4392 45.3013ZM48.3431 47.8074C48.336 47.9593 48.2984 48.1082 48.2328 48.2453C48.1672 48.3825 48.0748 48.5051 47.9611 48.606C47.8473 48.7068 47.7145 48.7839 47.5705 48.8327C47.4265 48.8815 47.2742 48.9009 47.1226 48.8899C46.6965 48.9127 46.2783 48.7691 45.9562 48.4894C45.9341 48.4709 45.9197 48.4449 45.9157 48.4164C45.9117 48.3879 45.9184 48.359 45.9345 48.3351L46.1727 47.9157C46.1816 47.9015 46.1934 47.8893 46.2074 47.8798C46.2213 47.8704 46.237 47.864 46.2535 47.8609C46.27 47.8579 46.287 47.8583 46.3034 47.8621C46.3197 47.8659 46.3351 47.8731 46.3486 47.8832C46.5603 48.0534 46.8191 48.1545 47.0901 48.1728C47.1343 48.1772 47.1789 48.1726 47.2212 48.1591C47.2635 48.1457 47.3027 48.1237 47.3361 48.0945C47.3696 48.0653 47.3968 48.0296 47.4159 47.9895C47.435 47.9495 47.4457 47.9059 47.4473 47.8615C47.4473 47.6423 47.2552 47.5043 46.9061 47.3365C46.4054 47.0956 45.902 46.8142 45.902 46.1944C45.902 45.6802 46.2999 45.1633 47.0982 45.1633C47.4985 45.1738 47.8855 45.3091 48.2051 45.5503C48.2294 45.57 48.246 45.5976 48.252 45.6283C48.2579 45.659 48.2528 45.6908 48.2376 45.7181L47.967 46.1159C47.9546 46.1335 47.9388 46.1484 47.9206 46.1597C47.9023 46.1711 47.882 46.1786 47.8608 46.1819C47.8395 46.1852 47.8179 46.1841 47.7971 46.1789C47.7762 46.1736 47.7567 46.1641 47.7396 46.1511C47.5351 46.0005 47.2941 45.907 47.0414 45.8805C47.0022 45.8737 46.962 45.8757 46.9237 45.8862C46.8853 45.8968 46.8497 45.9156 46.8195 45.9415C46.7893 45.9673 46.7651 45.9995 46.7487 46.0357C46.7324 46.072 46.7242 46.1114 46.7247 46.1511C46.7247 46.3216 46.9277 46.4569 47.2904 46.6329C47.7532 46.8494 48.3431 47.1038 48.3431 47.8074Z" fill="#2C69EA"></path></svg>